# AST/ASF file generated using VICON BodyLanguage
# -----------------------------------------------
:version 1.10
:name VICON
:units
  mass 1.0
  length 0.45
  angle deg
:documentation
   .ast/.asf automatically generated from VICON data using
   VICON BodyBuilder and BodyLanguage model FoxedUp or BRILLIANT.MOD
:root
   order TX TY TZ RX RY RZ
   axis XYZ
   position 0 0 0  
   orientation 0 0 0 
:bonedata
  begin
     id 1 
     name lhipjoint
     direction 0.567725 -0.736092 0.368589 
     length 2.42353 
     axis 0 0 0  XYZ
  end
  begin
     id 2 
     name lfemur
     direction 0.34202 -0.939693 0  
     length 7.24894  
     axis 0 0 20  XYZ
    dof rx ry rz
    limits (-160.0 20.0)
           (-70.0 70.0)
           (-60.0 70.0)
  end
  begin
     id 3 
     name ltibia
     direction 0.34202 -0.939693 0   
     length 7.6997   
     axis 0 0 20   XYZ
    dof rx
    limits (-10.0 170.0)
  end
  begin
     id 4 
     name lfoot
     direction 0.100767 -0.276854 0.955614   
     length 2.37556   
     axis -90 7.62852e-016 20   XYZ
    dof rx rz
    limits (-45.0 90.0)
           (-70.0 20.0)
  end
  begin
     id 5 
     name ltoes
     direction 1.53592e-011 -4.21894e-011 1   
     length 1.18363   
     axis -90 7.62852e-016 20   XYZ
    dof rx
    limits (-90.0 20.0)
  end
  begin
     id 6 
     name rhipjoint
     direction -0.556459 -0.742938 0.372017   
     length 2.4012  
     axis 0 0 0  XYZ 
  end
  begin
     id 7 
     name rfemur
     direction -0.34202 -0.939693 0   
     length 7.5119   
     axis 0 0 -20   XYZ
    dof rx ry rz
    limits (-160.0 20.0)
           (-70.0 70.0)
           (-70.0 60.0)
  end
  begin
     id 8 
     name rtibia
     direction -0.34202 -0.939693 0   
     length 7.50155   
     axis 0 0 -20   XYZ
    dof rx
    limits (-10.0 170.0)
 end
 begin
     id 9 
     name rfoot
     direction -0.118427 -0.325376 0.938139   
     length 2.32487  
     axis -90 -7.62852e-016 -20   XYZ
    dof rx rz
    limits (-45.0 90.0)
           (-20.0 70.0)
  end
  begin
     id 10 
     name rtoes
     direction -1.53525e-011 -4.21868e-011 1   
     length 1.15233   
     axis -90 -7.62852e-016 -20   XYZ
    dof rx
    limits (-90.0 20.0)
  end
  begin
     id 11 
     name lowerback
     direction 0.0287568 0.999577 -0.00434502   
     length 2.15243   
     axis 0 0 0   XYZ
    dof rx ry rz
    limits (-20.0 45.0)
           (-30.0 30.0)
           (-30.0 30.0)
  end
  begin
     id 12 
     name upperback
     direction 0.0294009 0.99956 0.00404628   
     length 2.15427   
     axis 0 0 0   XYZ
    dof rx ry rz
    limits (-20.0 45.0)
           (-30.0 30.0)
           (-30.0 30.0)
  end
  begin
     id 13 
     name thorax
     direction 0.0151014 0.999868 0.0059419   
     length 2.14898   
     axis 0 0 0   XYZ
    dof rx ry rz
    limits (-20.0 45.0)
           (-30.0 30.0)
           (-30.0 30.0)
  end
  begin
     id 14 
     name lowerneck
     direction -0.0249197 0.989906 0.139515   
     length 1.6861   
     axis 0 0 0   XYZ
    dof rx ry rz
    limits (-20.0 45.0)
           (-30.0 30.0)
           (-30.0 30.0)
  end
  begin
     id 15 
     name upperneck
     direction 0.0438463 0.988795 -0.142693   
     length 1.71276   
     axis 0 0 0   XYZ
    dof rx ry rz
    limits (-20.0 45.0)
           (-30.0 30.0)
           (-30.0 30.0)
  end
  begin
     id 16
     name head
     direction 0.0148499 0.997845 -0.0639186  
     length 1.7209  
     axis 0 0 0   XYZ
    dof rx ry rz
    limits (-20.0 45.0)
           (-30.0 30.0)
           (-30.0 30.0)
  end
  begin
     id 17 
     name lclavicle
     direction 0.940298 0.323464 -0.105876  
     length 3.9048  
     axis 0 0 0   XYZ
    dof ry rz
    limits (-20.0 10.0)
           (0.0 20.0)
  end
  begin
     id 18 
     name lhumerus
     direction 1 -4.48954e-011 -4.9675e-028   
     length 4.6851   
     axis 180 -30 -90   XYZ
    dof rx ry rz
    limits (-60.0 90.0)
           (-90.0 90.0)
           (-90.0 90.0)
  end
  begin
     id 19
     name lradius
     direction 1 -4.48992e-011 -1.03359e-026   
     length 3.39626   
     axis 180 -30 -90   XYZ
    dof rx
    limits (-10.0 170.0)
  end
  begin
     id 20
     name lwrist
     direction 1 -4.48906e-011 -1.67336e-026   
     length 1.69813   
     axis 9.90442e-015 90 90   XYZ
    dof ry
    limits (-180.0 0.0)
 end
  begin
     id 21 
     name lhand
     direction 1 -4.49006e-011 -3.34673e-026   
     length 0.486078   
     axis 2.1355e-014 90 90   XYZ
    dof rx rz
    limits (-90.0 90.0)
           (-45.0 45.0)
  end
  begin
     id 22 
     name lfingers
     direction 1 -4.48992e-011 -6.69345e-026   
     length 0.391889   
     axis 4.27099e-014 90 90   XYZ
    dof rx
    limits (0.0 90.0)
  end
  begin
     id 23
     name lthumb
     direction 0.707107 -6.34926e-011 0.707107   
     length 0.562676   
     axis -90 45 2.85299e-015   XYZ
    dof rx rz
    limits (-45.0 45.0)
           (-45.0 45.0)
  end
  begin
     id 24 
     name rclavicle
     direction -0.882459 0.414895 -0.221648   
     length 3.44646  
     axis 0 0 0   XYZ 
    dof ry rz
    limits (-10.0 20.0)
           (-20.0 0.0)
  end
  begin
     id 25 
     name rhumerus
     direction -1 -4.48962e-011 -2.37984e-027  
     length 5.55576   
     axis 180 30 90   XYZ
    dof rx ry rz
    limits (-90.0 60.0)
           (-90.0 90.0)
           (-90.0 90.0)
  end
  begin
     id 26 
     name rradius
     direction -1 -4.48982e-011 -6.86791e-027   
     length 3.32774   
     axis 180 30 90   XYZ
    dof rx
    limits (-10.0 170.0)
  end
  begin
     id 27 
     name rwrist
     direction -1 -4.48961e-011 -1.67336e-026   
     length 1.66387   
     axis 9.90442e-015 -90 -90   XYZ
    dof ry
    limits (-180.0 0.0)
  end
  begin
     id 28
     name rhand
     direction -1 -4.4897e-011 -3.34673e-026   
     length 0.507628   
     axis 2.1355e-014 -90 -90   XYZ
    dof rx rz
    limits (-90.0 90.0)
           (-45.0 45.0)
  end
  begin
     id 29
     name rfingers
     direction -1 -4.48854e-011 -6.69345e-026   
     length 0.409263   
     axis 4.27099e-014 -90 -90   XYZ
    dof rx
    limits (0.0 90.0)
  end
  begin
     id 30
     name rthumb
     direction -0.707107 -6.34913e-011 0.707107   
     length 0.587622   
     axis -90 -45 -2.85299e-015   XYZ
    dof rx rz
    limits (-45.0 45.0)
           (-45.0 45.0)
  end
:hierarchy
  begin
    root lhipjoint rhipjoint lowerback
    lhipjoint lfemur
    lfemur ltibia
    ltibia lfoot
    lfoot ltoes
    rhipjoint rfemur
    rfemur rtibia
    rtibia rfoot
    rfoot rtoes
    lowerback upperback
    upperback thorax
    thorax lowerneck lclavicle rclavicle
    lowerneck upperneck
    upperneck head
    lclavicle lhumerus
    lhumerus lradius
    lradius lwrist
    lwrist lhand lthumb
    lhand lfingers
    rclavicle rhumerus
    rhumerus rradius
    rradius rwrist
    rwrist rhand rthumb
    rhand rfingers
  end

#!OML:ASF E:\motion texture\Top Level 1\Subject 1\Session 1\male.ASF
:FULLY-SPECIFIED
:DEGREES
65
root 23.9152 17.9006 6.37913 63.2118 -80.7613 -58.3804
lowerback -0.178824 -1.96292 4.843
upperback -2.2927 -2.61102 4.88809
thorax -2.24787 -1.40378 2.37571
lowerneck -4.82455 -14.1503 -16.7889
upperneck 10.8908 -19.4393 12.3204
head 6.95796 -9.52833 4.66437
rclavicle 2.52084e-014 -5.88403e-014
rhumerus -21.0156 -10.6653 -74.6123
rradius 100.332
rwrist -20.9884
rhand -18.2453 -35.7697
rfingers 7.12502
rthumb 8.03362 -65.597
lclavicle 2.52084e-014 -5.88403e-014
lhumerus -13.0951 -12.4809 83.8758
lradius 107.121
lwrist 8.61533
lhand 7.96281 14.518
lfingers 7.12502
lthumb 33.1917 41.4776
rfemur -13.5811 2.08086 30.4131
rtibia 18.12
rfoot -6.82646 -13.7289
rtoes 17.3868
lfemur -18.0428 0.616954 -6.27998
ltibia 60.4355
lfoot 2.65826 -2.90901
ltoes -17.4891
66
root 23.7738 17.9148 6.36201 63.3617 -80.7772 -58.5803
lowerback -0.264564 -1.9146 4.87244
upperback -2.27069 -2.55316 4.80694
thorax -2.18202 -1.37411 2.26965
lowerneck -4.59797 -14.208 -16.8773
upperneck 10.8669 -19.5654 12.4198
head 6.95026 -9.59752 4.70377
rclavicle -1.47846e-015 -3.97569e-014
rhumerus -20.9146 -10.1578 -74.9461
rradius 100.701
rwrist -20.52
rhand -18.5642 -35.4923
rfingers 7.12502
rthumb 7.72581 -65.3312
lclavicle -1.47846e-015 -3.97569e-014
lhumerus -13.2175 -11.495 83.8709
lradius 106.884
lwrist 9.67199
lhand 6.63275 14.9265
lfingers 7.12502
lthumb 31.9261 42.1473
rfemur -12.737 2.15816 30.5563
rtibia 17.6432
rfoot -7.09232 -13.7758
rtoes 17.2181
lfemur -19.1319 0.959512 -6.27489
ltibia 60.9664
lfoot 1.8769 -2.22476
ltoes -17.1535
67
root 23.6327 17.9277 6.34576 63.53 -80.7835 -58.7938
lowerback -0.33977 -1.87701 4.92784
upperback -2.25878 -2.50802 4.72119
thorax -2.13371 -1.35158 2.14572
lowerneck -4.39663 -14.2639 -16.9361
upperneck 10.8887 -19.6869 12.4775
head 6.95346 -9.66464 4.72437
rclavicle -3.00724e-014 -1.43125e-014
rhumerus -20.7985 -9.57027 -75.3424
rradius 101.042
rwrist -19.9796
rhand -18.866 -35.2345
rfingers 7.12502
rthumb 7.43448 -65.0839
lclavicle -3.00724e-014 -1.43125e-014
lhumerus -13.4142 -10.4552 83.8726
lradius 106.619
lwrist 10.7021
lhand 5.3571 15.3945
lfingers 7.12502
lthumb 30.7105 42.8507
rfemur -11.9008 2.22653 30.7098
rtibia 17.1577
rfoot -7.32971 -13.8275
rtoes 16.9619
lfemur -20.1994 1.27403 -6.27376
ltibia 61.3487
lfoot 1.06593 -1.5564
ltoes -16.8106
68
root 23.4922 17.939 6.33022 63.7476 -80.785 -59.0535
lowerback -0.404525 -1.84718 5.00372
upperback -2.25347 -2.47198 4.6325
thorax -2.09897 -1.3342 2.00838
lowerneck -4.21129 -14.3143 -16.9763
upperneck 10.9387 -19.7997 12.5097
head 6.96251 -9.72763 4.73433
rclavicle 2.34007e-014 -1.98785e-015
rhumerus -20.6773 -8.9017 -75.7914
rradius 101.351
rwrist -19.3725
rhand -19.1491 -35.0114
rfingers 7.12502
rthumb 7.16124 -64.8703
lclavicle 2.34007e-014 -1.98785e-015
lhumerus -13.6744 -9.36858 83.8795
lradius 106.324
lwrist 11.6986
lhand 4.1264 15.9217
lfingers 7.12502
lthumb 29.5364 43.5919
rfemur -11.072 2.30527 30.8732
rtibia 16.6729
rfoot -7.55795 -13.8951
rtoes 16.7
lfemur -21.2385 1.56417 -6.27522
ltibia 61.5787
lfoot 0.218852 -0.914286
ltoes -16.4772
69
root 23.3519 17.9485 6.31532 64.0072 -80.7852 -59.3484
lowerback -0.46154 -1.82367 5.09384
upperback -2.2582 -2.44321 4.54111
thorax -2.07958 -1.32104 1.86128
lowerneck -4.04856 -14.3616 -17.006
upperneck 11.0329 -19.9062 12.5116
head 6.9843 -9.78787 4.73201
rclavicle -4.25523e-016 9.14409e-015
rhumerus -20.5498 -8.1573 -76.2831
rradius 101.613
rwrist -18.7135
rhand -19.4477 -34.827
rfingers 7.12502
rthumb 6.87295 -64.6955
lclavicle -4.25523e-016 9.14409e-015
lhumerus -13.9962 -8.24805 83.8875
lradius 106.002
lwrist 12.6642
lhand 2.95462 16.5228
lfingers 7.12502
lthumb 28.4172 44.3853
rfemur -10.2553 2.39613 31.0429
rtibia 16.1904
rfoot -7.77902 -13.9856
rtoes 16.4367
lfemur -22.2483 1.83187 -6.28027
ltibia 61.6554
lfoot -0.646472 -0.312929
ltoes -16.1753
70
root 23.212 17.9561 6.30101 64.332 -80.7914 -59.7057
lowerback -0.51297 -1.80266 5.1888
upperback -2.26201 -2.41744 4.44859
thorax -2.06251 -1.30949 1.7107
lowerneck -3.92666 -14.4078 -17.0288
upperneck 11.166 -20.0063 12.4907
head 7.02133 -9.84405 4.71888
rclavicle 1.88659e-014 -2.54444e-014
rhumerus -20.4064 -7.34357 -76.8074
rradius 101.825
rwrist -18.017
rhand -19.7562 -34.6676
rfingers 7.12502
rthumb 6.57514 -64.5455
lclavicle 1.88659e-014 -2.54444e-014
lhumerus -14.3537 -7.10089 83.8977
lradius 105.648
lwrist 13.5843
lhand 1.8242 17.1872
lfingers 7.12502
lthumb 27.3364 45.225
rfemur -9.44922 2.50027 31.2141
rtibia 15.7146
rfoot -7.99814 -14.0998
rtoes 16.1867
lfemur -23.2181 2.07896 -6.29092
ltibia 61.5706
lfoot -1.52896 0.23921
ltoes -15.9833
71
root 23.0726 17.9616 6.28734 64.7405 -80.8075 -60.141
lowerback -0.553482 -1.78314 5.28278
upperback -2.27474 -2.3924 4.35708
thorax -2.06058 -1.29864 1.56253
lowerneck -3.82365 -14.4469 -17.0563
upperneck 11.3375 -20.0942 12.4472
head 7.07011 -9.89495 4.69911
rclavicle -1.66076e-014 -1.27222e-014
rhumerus -20.2725 -6.45529 -77.3487
rradius 101.986
rwrist -17.3066
rhand -20.1044 -34.5173
rfingers 7.12502
rthumb 6.23903 -64.4054
lclavicle -1.66076e-014 -1.27222e-014
lhumerus -14.758 -5.93011 83.9095
lradius 105.255
lwrist 14.4285
lhand 0.718302 17.8549
lfingers 7.12502
lthumb 26.2782 46.055
rfemur -8.65784 2.62965 31.3854
rtibia 15.2484
rfoot -8.21339 -14.2398
rtoes 15.9426
lfemur -24.1449 2.31122 -6.30644
ltibia 61.3191
lfoot -2.39174 0.74859
ltoes -15.9571
